<svg width="16" height="16" viewBox="0 0 16 16" fill="none" xmlns="http://www.w3.org/2000/svg">
<g id="fi-sr-arrow-small-right">
<path id="Vector" d="M11.3747 6.34992L8.98398 3.95926C8.79639 3.77175 8.54199 3.66644 8.27675 3.6665C8.01151 3.66657 7.75716 3.77199 7.56965 3.95959C7.38214 4.14718 7.27684 4.40159 7.2769 4.66682C7.27696 4.93206 7.38239 5.18641 7.56998 5.37392L9.19598 6.99992H3.33398C3.06877 6.99992 2.81441 7.10528 2.62688 7.29281C2.43934 7.48035 2.33398 7.7347 2.33398 7.99992C2.33398 8.26514 2.43934 8.51949 2.62688 8.70703C2.81441 8.89456 3.06877 8.99992 3.33398 8.99992H9.19598L7.56998 10.6259C7.38239 10.8134 7.27696 11.0678 7.2769 11.333C7.27684 11.5983 7.38214 11.8527 7.56965 12.0403C7.75716 12.2279 8.01151 12.3333 8.27675 12.3333C8.54199 12.3334 8.79639 12.2281 8.98398 12.0406L11.3747 9.64992C11.8115 9.2119 12.0568 8.61853 12.0568 7.99992C12.0568 7.38131 11.8115 6.78795 11.3747 6.34992Z" fill="#999DAA"/>
</g>
</svg>
