<svg width="24" height="24" viewBox="0 0 24 24" fill="none" xmlns="http://www.w3.org/2000/svg">
<g id="Twitter">
<path id="Vector" d="M23.0307 7.28056L20.2275 10.0837C19.6613 16.6481 14.1254 21.7499 7.50005 21.7499C6.1388 21.7499 5.01661 21.5343 4.16442 21.1087C3.47723 20.7646 3.19598 20.3962 3.12567 20.2912C3.06298 20.1972 3.02234 20.0902 3.0068 19.9782C2.99125 19.8663 3.00121 19.7523 3.03592 19.6448C3.07062 19.5372 3.12919 19.4389 3.20723 19.3572C3.28527 19.2754 3.38078 19.2124 3.48661 19.1727C3.51098 19.1634 5.75911 18.2999 7.18692 16.6565C6.39509 16.0055 5.70387 15.241 5.13567 14.3877C3.97317 12.6618 2.67192 9.66369 3.07317 5.18337C3.08589 5.04101 3.13902 4.90525 3.22631 4.79207C3.31361 4.67889 3.43142 4.59301 3.56588 4.54454C3.70034 4.49608 3.84586 4.48704 3.98528 4.51851C4.12471 4.54997 4.25224 4.62061 4.35286 4.72212C4.38567 4.75494 7.47286 7.82525 11.2472 8.82087V8.24994C11.2458 7.65124 11.3642 7.05831 11.5954 6.50606C11.8266 5.95381 12.1659 5.45341 12.5935 5.03431C13.0087 4.61968 13.5028 4.29241 14.0465 4.07182C14.5903 3.85123 15.1727 3.74178 15.7594 3.74994C16.5465 3.7577 17.3182 3.96899 17.9995 4.36325C18.6807 4.75752 19.2484 5.32135 19.6472 5.99994H22.5C22.6485 5.99982 22.7936 6.04374 22.917 6.12615C23.0405 6.20855 23.1367 6.32573 23.1935 6.46284C23.2503 6.59996 23.2652 6.75085 23.2362 6.89642C23.2072 7.04198 23.1357 7.17567 23.0307 7.28056Z" fill="#6E727F"/>
</g>
</svg>
