<svg width="40" height="40" viewBox="0 0 40 40" fill="none" xmlns="http://www.w3.org/2000/svg">
<g id="Text=No, Dark=Yes" clip-path="url(#clip0_7_29861)">
<path id="Subtract" fill-rule="evenodd" clip-rule="evenodd" d="M20 40C31.0458 40 40 31.0457 40 20C40 8.95431 31.0458 0 20 0C8.9543 0 0 8.95431 0 20C0 31.0457 8.9543 40 20 40ZM23.2593 12.2988C24.0082 12.8505 24.4321 13.6245 24.5309 14.6209H29.6543C29.6296 13.114 29.2263 11.7883 28.4444 10.6437C27.6626 9.49913 26.5679 8.6057 25.1605 7.96342C23.7613 7.32114 22.1235 7 20.2469 7C18.4033 7 16.7572 7.32114 15.3086 7.96342C13.8601 8.6057 12.7202 9.49913 11.8889 10.6437C11.0658 11.7883 10.6584 13.1264 10.6667 14.658C10.6584 16.5272 11.2716 18.0135 12.5062 19.1169C13.7407 20.2203 15.4239 21.0314 17.5556 21.5501L20.3086 22.2418C21.2305 22.4641 22.0082 22.7112 22.642 22.9829C23.284 23.2546 23.7695 23.584 24.0988 23.971C24.4362 24.358 24.6049 24.8356 24.6049 25.4038C24.6049 26.0131 24.4198 26.5525 24.0494 27.0219C23.679 27.4912 23.1564 27.8576 22.4815 28.1211C21.8148 28.3846 21.0288 28.5164 20.1235 28.5164C19.2016 28.5164 18.3745 28.3764 17.642 28.0964C16.9177 27.8082 16.3374 27.3842 15.9012 26.8242C15.4733 26.2561 15.2305 25.5479 15.1728 24.6998H10C10.0412 26.5196 10.4815 28.047 11.321 29.2822C12.1687 30.5091 13.3457 31.4355 14.8519 32.0613C16.3663 32.6871 18.144 33 20.1852 33C22.2428 33 24 32.6912 25.4568 32.0736C26.9218 31.4478 28.0412 30.5709 28.8148 29.4428C29.5967 28.3064 29.9918 26.9642 30 25.4162C29.9918 24.3622 29.7984 23.4276 29.4198 22.6124C29.0494 21.7971 28.5267 21.089 27.8519 20.4879C27.177 19.8868 26.3786 19.3804 25.4568 18.9686C24.535 18.5569 23.5226 18.2276 22.4198 17.9805L20.1481 17.4371C19.5967 17.3135 19.0782 17.1653 18.5926 16.9924C18.107 16.8112 17.679 16.6013 17.3086 16.3625C16.9383 16.1154 16.6461 15.8231 16.4321 15.4855C16.2263 15.1479 16.1317 14.7527 16.1481 14.2998C16.1481 13.7563 16.3045 13.2705 16.6173 12.8423C16.9383 12.4141 17.3992 12.0806 18 11.8418C18.6008 11.5948 19.3374 11.4713 20.2099 11.4713C21.4938 11.4713 22.5103 11.7471 23.2593 12.2988Z" fill="#F9F9F9"/>
</g>
<defs>
<clipPath id="clip0_7_29861">
<rect width="40" height="40" fill="white"/>
</clipPath>
</defs>
</svg>
