<svg width="62" height="62" viewBox="0 0 62 62" fill="none" xmlns="http://www.w3.org/2000/svg">
<g id="Frame" clip-path="url(#clip0_5539_8765)">
<path id="Vector" d="M30.9976 61.9952C48.1171 61.9952 61.9952 48.1171 61.9952 30.9976C61.9952 13.8781 48.1171 0 30.9976 0C13.8781 0 0 13.8781 0 30.9976C0 48.1171 13.8781 61.9952 30.9976 61.9952Z" fill="#B9C4E1"/>
<path id="Vector_2" d="M30.9976 44.4048C37.6566 44.4048 43.0549 36.7778 43.0549 27.3695C43.0549 17.9612 37.6566 10.3342 30.9976 10.3342C24.3385 10.3342 18.9403 17.9612 18.9403 27.3695C18.9403 36.7778 24.3385 44.4048 30.9976 44.4048Z" fill="white"/>
<path id="Vector_3" d="M30.9976 42.6672C20.9124 42.6672 12.0334 45.7498 6.84955 50.4214C9.75302 54.0342 13.43 56.9495 17.6097 58.9525C21.7893 60.9556 26.3652 61.9955 31 61.9955C35.6349 61.9955 40.2107 60.9556 44.3903 58.9525C48.57 56.9495 52.247 54.0342 55.1505 50.4214C49.9667 45.7498 41.0876 42.6672 30.9976 42.6672Z" fill="white"/>
<path id="Vector_4" d="M33.7929 30.9976H28.2022C25.6592 30.9976 23.5976 33.0591 23.5976 35.6022V46.0799C23.5976 48.623 25.6592 50.6846 28.2022 50.6846H33.7929C36.336 50.6846 38.3976 48.623 38.3976 46.0799V35.6022C38.3976 33.0591 36.336 30.9976 33.7929 30.9976Z" fill="white"/>
<path id="Vector_5" d="M20.606 26.6418C21.3097 28.6665 21.0273 30.6003 19.9838 30.9497C18.9403 31.2991 17.5187 29.9924 16.8199 27.9437C16.1211 25.8951 16.3939 23.9901 17.4422 23.6359C18.4904 23.2816 19.9024 24.6219 20.606 26.6418Z" fill="white"/>
<path id="Vector_6" d="M41.394 26.6418C40.6903 28.6665 40.968 30.6003 42.0162 30.9497C43.0645 31.2991 44.4765 29.9924 45.1801 27.9437C45.8838 25.8951 45.6014 23.9901 44.5579 23.6359C43.5144 23.2816 42.1215 24.6219 41.394 26.6418Z" fill="white"/>
<path id="Vector_7" d="M22.1281 9.53003H39.8718C40.716 9.53003 41.5257 9.86539 42.1226 10.4623C42.7195 11.0593 43.0549 11.8689 43.0549 12.7131V25.9239H18.9499V12.7131C18.9499 11.8697 19.2846 11.0608 19.8805 10.464C20.4764 9.86721 21.2848 9.5313 22.1281 9.53003Z" fill="white"/>
<path id="Vector_8" d="M28.9394 40.8435H20.3859C20.7006 41.1804 20.9002 41.6085 20.9561 42.0661C21.012 42.5237 20.9213 42.9872 20.697 43.3899L19.4238 45.6971L28.9394 49.9714V40.8435Z" fill="white"/>
<path id="Vector_9" d="M33.0606 40.8435H41.6094C41.2966 41.1815 41.0983 41.6094 41.0424 42.0665C40.9866 42.5235 41.0761 42.9866 41.2982 43.3899L42.5762 45.6971L33.0606 49.9714V40.8435Z" fill="white"/>
</g>
<defs>
<clipPath id="clip0_5539_8765">
<rect width="62" height="62" fill="white"/>
</clipPath>
</defs>
</svg>
